<svg id="Layer_1" data-name="Layer 1" xmlns="http://www.w3.org/2000/svg" width="1008" height="1122.72" viewBox="0 0 1008 1122.72"><defs><style>.cls-1{fill:#28234c;}.cls-2{fill:#009fe3;}</style></defs><title>Artboard 1</title><g id="Ebene_2" data-name="Ebene 2"><g id="Layer_1-2" data-name="Layer 1"><polygon class="cls-1" points="800.37 4.85 615.41 139.64 615.41 421.53 800.37 683.01 800.37 4.85"/><polygon class="cls-1" points="800.37 1009.98 89.5 4.85 7.18 65.07 7.18 1116 192.05 981.29 192.05 460.82 654.43 1116 856.67 1116 1002.61 1009.98 800.37 1009.98"/><polygon class="cls-2" points="192.05 460.82 192.05 981.29 7.18 1116 209.42 1116 394.37 981.29 394.37 747.43 192.05 460.82"/><polygon class="cls-2" points="800.37 683.01 800.37 4.85 1002.61 4.85 1002.61 1009.98 800.37 1009.98 89.5 4.85 320.69 4.85 800.37 683.01"/></g></g></svg>